<?xml version="1.0" encoding="UTF-8" standalone="no"?>
<!DOCTYPE svg PUBLIC "-//W3C//DTD SVG 1.1//EN"
 "http://www.w3.org/Graphics/SVG/1.1/DTD/svg11.dtd">
<!-- Generated by graphviz version 2.40.1 (20161225.0304)
 -->
<!-- Title: %3 Pages: 1 -->
<svg width="234pt" height="301pt"
 viewBox="0.00 0.00 233.62 300.88" xmlns="http://www.w3.org/2000/svg" xmlns:xlink="http://www.w3.org/1999/xlink">
<g id="graph0" class="graph" transform="scale(1 1) rotate(0) translate(4 296.8772)">
<title>%3</title>
<polygon fill="#ffffff" stroke="transparent" points="-4,4 -4,-296.8772 229.6188,-296.8772 229.6188,4 -4,4"/>
<!-- In &#45;2 -->
<g id="node1" class="node">
<title>In &#45;2</title>
<polygon fill="#d3d3d3" stroke="#000000" points="126.7487,-292.8772 92.7487,-292.8772 92.7487,-274.8772 126.7487,-274.8772 126.7487,-292.8772"/>
<text text-anchor="middle" x="109.7487" y="-281.6772" font-family="Times,serif" font-size="9.00" fill="#000000">In &#45;2</text>
</g>
<!-- Confess -->
<g id="node4" class="node">
<title>Confess</title>
<ellipse fill="#add8e6" stroke="#000000" cx="76.7487" cy="-207.0574" rx="31.6406" ry="31.6406"/>
<text text-anchor="middle" x="76.7487" y="-204.8574" font-family="Times,serif" font-size="9.00" fill="#000000">Confess</text>
</g>
<!-- In &#45;2&#45;&gt;Confess -->
<g id="edge13" class="edge">
<title>In &#45;2&#45;&gt;Confess</title>
<path fill="none" stroke="#00ff00" stroke-width=".173" d="M105.8336,-274.7633C102.6909,-267.4474 98.0484,-256.6403 93.3908,-245.7981"/>
<polygon fill="#00ff00" stroke="#00ff00" stroke-width=".173" points="96.4942,-244.1546 89.3313,-236.3479 90.0625,-246.9175 96.4942,-244.1546"/>
</g>
<!-- 680 -->
<g id="node7" class="node">
<title>680</title>
<ellipse fill="#ffffff" stroke="#000000" cx="180.7487" cy="-114.4889" rx="21.4286" ry="21.4286"/>
<text text-anchor="middle" x="180.7487" y="-112.2889" font-family="Times,serif" font-size="9.00" fill="#000000">680</text>
</g>
<!-- In &#45;2&#45;&gt;680 -->
<g id="edge1" class="edge">
<title>In &#45;2&#45;&gt;680</title>
<path fill="none" stroke="#ff0000" stroke-width=".3" stroke-dasharray="1,5" d="M115.618,-274.8249C121.2401,-265.9145 129.7344,-251.8024 135.7487,-238.8772 150.2247,-207.7675 163.132,-170.5997 171.3705,-145.0428"/>
<polygon fill="#ff0000" stroke="#ff0000" stroke-width=".3" points="174.8096,-145.7771 174.5018,-135.1867 168.1381,-143.6575 174.8096,-145.7771"/>
</g>
<!-- In &#160;&#45;1 -->
<g id="node2" class="node">
<title>In &#160;&#45;1</title>
<polygon fill="#d3d3d3" stroke="#000000" points="141.7487,-123.4889 105.7487,-123.4889 105.7487,-105.4889 141.7487,-105.4889 141.7487,-123.4889"/>
<text text-anchor="middle" x="123.7487" y="-112.2889" font-family="Times,serif" font-size="9.00" fill="#000000">In &#160;&#45;1</text>
</g>
<!-- Silent -->
<g id="node5" class="node">
<title>Silent</title>
<ellipse fill="#add8e6" stroke="#000000" cx="180.7487" cy="-26.8701" rx="26.7407" ry="26.7407"/>
<text text-anchor="middle" x="180.7487" y="-24.6701" font-family="Times,serif" font-size="9.00" fill="#000000">Silent</text>
</g>
<!-- In &#160;&#45;1&#45;&gt;Silent -->
<g id="edge4" class="edge">
<title>In &#160;&#45;1&#45;&gt;Silent</title>
<path fill="none" stroke="#00ff00" stroke-width=".2222" d="M129.6341,-105.4421C136.8522,-94.3466 149.4718,-74.9481 160.3653,-58.2029"/>
<polygon fill="#00ff00" stroke="#00ff00" stroke-width=".2222" points="163.3476,-60.037 165.8669,-49.746 157.4799,-56.2198 163.3476,-60.037"/>
</g>
<!-- 683 -->
<g id="node8" class="node">
<title>683</title>
<ellipse fill="#ffffff" stroke="#000000" cx="77.7487" cy="-26.8701" rx="21.4286" ry="21.4286"/>
<text text-anchor="middle" x="77.7487" y="-24.6701" font-family="Times,serif" font-size="9.00" fill="#000000">683</text>
</g>
<!-- In &#160;&#45;1&#45;&gt;683 -->
<g id="edge10" class="edge">
<title>In &#160;&#45;1&#45;&gt;683</title>
<path fill="none" stroke="#ff0000" stroke-width=".1618" d="M118.9992,-105.4421C112.8014,-93.6368 101.6689,-72.4321 92.5299,-55.0245"/>
<polygon fill="#ff0000" stroke="#ff0000" stroke-width=".1618" points="95.449,-53.0551 87.7017,-45.8281 89.2512,-56.309 95.449,-53.0551"/>
</g>
<!-- In 0 -->
<g id="node3" class="node">
<title>In 0</title>
<polygon fill="#d3d3d3" stroke="#000000" points="208.2487,-292.8772 177.2487,-292.8772 177.2487,-274.8772 208.2487,-274.8772 208.2487,-292.8772"/>
<text text-anchor="middle" x="192.7487" y="-281.6772" font-family="Times,serif" font-size="9.00" fill="#000000">In 0</text>
</g>
<!-- In 0&#45;&gt;Confess -->
<g id="edge5" class="edge">
<title>In 0&#45;&gt;Confess</title>
<path fill="none" stroke="#ff0000" stroke-width=".1248" stroke-dasharray="1,5" d="M178.9865,-274.7633C162.5961,-263.9089 134.6015,-245.3698 112.046,-230.4326"/>
<polygon fill="#ff0000" stroke="#ff0000" stroke-width=".1248" points="113.9733,-227.5111 103.7032,-224.9077 110.1082,-233.3473 113.9733,-227.5111"/>
</g>
<!-- In 0&#45;&gt;Silent -->
<g id="edge6" class="edge">
<title>In 0&#45;&gt;Silent</title>
<path fill="none" stroke="#ff0000" stroke-width=".1165" stroke-dasharray="1,5" d="M195.5652,-274.8462C203.8505,-246.9363 226.5916,-159.7291 210.7487,-89.7401 208.3857,-79.3011 204.0712,-68.5661 199.4369,-58.9872"/>
<polygon fill="#ff0000" stroke="#ff0000" stroke-width=".1165" points="202.4298,-57.1529 194.7563,-49.8476 196.1993,-60.3437 202.4298,-57.1529"/>
</g>
<!-- In 0&#45;&gt;680 -->
<g id="edge2" class="edge">
<title>In 0&#45;&gt;680</title>
<path fill="none" stroke="#00ff00" stroke-width=".1298" stroke-dasharray="1,5" d="M192.1036,-274.7701C190.409,-250.8503 185.7703,-185.372 182.9739,-145.8985"/>
<polygon fill="#00ff00" stroke="#00ff00" stroke-width=".1298" points="186.4529,-145.4767 182.2549,-135.7491 179.4704,-145.9715 186.4529,-145.4767"/>
</g>
<!-- Confess&#45;&gt;Confess -->
<g id="edge7" class="edge">
<title>Confess&#45;&gt;Confess</title>
<path fill="none" stroke="#00ff00" stroke-width=".2237" stroke-dasharray="1,5" d="M105.4185,-221.2204C116.9172,-222.0206 126.5685,-217.2996 126.5685,-207.0574 126.5685,-200.0159 122.0068,-195.584 115.4191,-193.7617"/>
<polygon fill="#00ff00" stroke="#00ff00" stroke-width=".2237" points="115.6835,-190.2716 105.4185,-192.8944 115.0786,-197.2454 115.6835,-190.2716"/>
</g>
<!-- 1735 -->
<g id="node6" class="node">
<title>1735</title>
<ellipse fill="#ffffff" stroke="#000000" cx="24.7487" cy="-114.4889" rx="25" ry="25"/>
<text text-anchor="middle" x="24.7487" y="-112.2889" font-family="Times,serif" font-size="9.00" fill="#000000">1735</text>
</g>
<!-- Confess&#45;&gt;1735 -->
<g id="edge14" class="edge">
<title>Confess&#45;&gt;1735</title>
<path fill="none" stroke="#00ff00" stroke-width=".2887" d="M61.147,-179.2838C55.1171,-168.5495 48.1938,-156.2249 42.0151,-145.2257"/>
<polygon fill="#00ff00" stroke="#00ff00" stroke-width=".2887" points="44.9852,-143.3666 37.036,-136.3622 38.8822,-146.7949 44.9852,-143.3666"/>
</g>
<!-- Confess&#45;&gt;680 -->
<g id="edge12" class="edge">
<title>Confess&#45;&gt;680</title>
<path fill="none" stroke="#00ff00" stroke-width=".166" d="M100.6084,-185.8203C117.5123,-170.7745 140.0936,-150.6753 156.9776,-135.6471"/>
<polygon fill="#00ff00" stroke="#00ff00" stroke-width=".166" points="159.6159,-137.9844 164.7586,-128.7214 154.9619,-132.7556 159.6159,-137.9844"/>
</g>
<!-- Confess&#45;&gt;683 -->
<g id="edge11" class="edge">
<title>Confess&#45;&gt;683</title>
<path fill="none" stroke="#ff0000" stroke-width=".1695" stroke-dasharray="1,5" d="M76.9275,-174.8435C77.1102,-141.921 77.3922,-91.1162 77.5736,-58.4321"/>
<polygon fill="#ff0000" stroke="#ff0000" stroke-width=".1695" points="81.0753,-58.114 77.6309,-48.0947 74.0754,-58.075 81.0753,-58.114"/>
</g>
<!-- Silent&#45;&gt;Silent -->
<g id="edge8" class="edge">
<title>Silent&#45;&gt;Silent</title>
<path fill="none" stroke="#00ff00" stroke-width=".1345" d="M202.9117,-42.3297C214.7938,-44.9569 225.6188,-39.8037 225.6188,-26.8701 225.6188,-17.7761 220.2671,-12.5287 212.9591,-11.1277"/>
<polygon fill="#00ff00" stroke="#00ff00" stroke-width=".1345" points="212.8093,-7.6305 202.9117,-11.4104 213.0062,-14.6277 212.8093,-7.6305"/>
</g>
<!-- 1735&#45;&gt;683 -->
<g id="edge15" class="edge">
<title>1735&#45;&gt;683</title>
<path fill="none" stroke="#ff0000" stroke-width=".1168" d="M37.5786,-93.2788C44.7277,-81.4599 53.7047,-66.6192 61.3583,-53.9665"/>
<polygon fill="#ff0000" stroke="#ff0000" stroke-width=".1168" points="64.4713,-55.5824 66.6523,-45.2145 58.4818,-51.9594 64.4713,-55.5824"/>
</g>
<!-- 680&#45;&gt;Silent -->
<g id="edge3" class="edge">
<title>680&#45;&gt;Silent</title>
<path fill="none" stroke="#ff0000" stroke-width=".2771" d="M180.7487,-92.8303C180.7487,-84.1044 180.7487,-73.7875 180.7487,-63.9366"/>
<polygon fill="#ff0000" stroke="#ff0000" stroke-width=".2771" points="184.2488,-63.9258 180.7487,-53.9258 177.2488,-63.9259 184.2488,-63.9258"/>
</g>
<!-- 683&#45;&gt;683 -->
<g id="edge9" class="edge">
<title>683&#45;&gt;683</title>
<path fill="none" stroke="#ff0000" stroke-width=".2963" d="M93.8606,-41.2589C105.4338,-45.9437 116.9619,-41.1474 116.9619,-26.8701 116.9619,-16.8313 111.2626,-11.4798 103.8556,-10.8156"/>
<polygon fill="#ff0000" stroke="#ff0000" stroke-width=".2963" points="103.1493,-7.385 93.8606,-12.4812 104.3,-14.2898 103.1493,-7.385"/>
</g>
</g>
</svg>
