<?xml version="1.0" encoding="UTF-8" standalone="no"?>
<!DOCTYPE svg PUBLIC "-//W3C//DTD SVG 1.1//EN"
 "http://www.w3.org/Graphics/SVG/1.1/DTD/svg11.dtd">
<!-- Generated by graphviz version 2.40.1 (20161225.0304)
 -->
<!-- Title: %3 Pages: 1 -->
<svg width="120pt" height="428pt"
 viewBox="0.00 0.00 120.08 428.03" xmlns="http://www.w3.org/2000/svg" xmlns:xlink="http://www.w3.org/1999/xlink">
<g id="graph0" class="graph" transform="scale(1 1) rotate(0) translate(4 424.0315)">
<title>%3</title>
<polygon fill="#ffffff" stroke="transparent" points="-4,4 -4,-424.0315 116.0833,-424.0315 116.0833,4 -4,4"/>
<!-- In -->
<g id="node1" class="node">
<title>In</title>
<polygon fill="#d3d3d3" stroke="#000000" points="52.8701,-420.0315 30.8701,-420.0315 30.8701,-402.0315 52.8701,-402.0315 52.8701,-420.0315"/>
<text text-anchor="middle" x="41.8701" y="-408.8315" font-family="Times,serif" font-size="9.00" fill="#000000">In</text>
</g>
<!-- Confess -->
<g id="node2" class="node">
<title>Confess</title>
<ellipse fill="#add8e6" stroke="#000000" cx="26.8701" cy="-186.5513" rx="26.7407" ry="26.7407"/>
<text text-anchor="middle" x="26.8701" y="-184.3513" font-family="Times,serif" font-size="9.00" fill="#000000">Confess</text>
</g>
<!-- In&#45;&gt;Confess -->
<g id="edge2" class="edge">
<title>In&#45;&gt;Confess</title>
<path fill="none" stroke="#00ff00" stroke-width=".3" d="M39.9533,-401.7975C35.8169,-381.3439 26.1618,-330.6238 22.8701,-287.6051 21.5753,-270.684 22.331,-266.3834 22.8701,-249.4214 23.1368,-241.028 23.6034,-232.0139 24.1259,-223.5064"/>
<polygon fill="#00ff00" stroke="#00ff00" stroke-width=".3" points="27.623,-223.6628 24.7813,-213.4562 20.6379,-223.2072 27.623,-223.6628"/>
</g>
<!-- 432 -->
<g id="node5" class="node">
<title>432</title>
<ellipse fill="#ffffff" stroke="#000000" cx="50.8701" cy="-268.5132" rx="19.1842" ry="19.1842"/>
<text text-anchor="middle" x="50.8701" y="-266.3132" font-family="Times,serif" font-size="9.00" fill="#000000">432</text>
</g>
<!-- In&#45;&gt;432 -->
<g id="edge7" class="edge">
<title>In&#45;&gt;432</title>
<path fill="none" stroke="#ff0000" stroke-width=".1841" stroke-dasharray="1,5" d="M42.4606,-401.6805C43.7676,-380.9834 46.9516,-330.5634 49.0052,-298.0441"/>
<polygon fill="#ff0000" stroke="#ff0000" stroke-width=".1841" points="52.5166,-297.9717 49.6539,-287.7709 45.5306,-297.5304 52.5166,-297.9717"/>
</g>
<!-- 2824 -->
<g id="node6" class="node">
<title>2824</title>
<ellipse fill="#ffffff" stroke="#000000" cx="90.8701" cy="-344.8183" rx="21.4286" ry="21.4286"/>
<text text-anchor="middle" x="90.8701" y="-342.6183" font-family="Times,serif" font-size="9.00" fill="#000000">2824</text>
</g>
<!-- In&#45;&gt;2824 -->
<g id="edge5" class="edge">
<title>In&#45;&gt;2824</title>
<path fill="none" stroke="#00ff00" stroke-width=".3" d="M48.6833,-401.8249C54.7184,-393.6697 63.8193,-381.3717 72.025,-370.2834"/>
<polygon fill="#00ff00" stroke="#00ff00" stroke-width=".3" points="74.9247,-372.2489 78.0599,-362.1286 69.2978,-368.0849 74.9247,-372.2489"/>
</g>
<!-- 2655 -->
<g id="node4" class="node">
<title>2655</title>
<ellipse fill="#ffffff" stroke="#000000" cx="26.8701" cy="-102.468" rx="21.4286" ry="21.4286"/>
<text text-anchor="middle" x="26.8701" y="-100.268" font-family="Times,serif" font-size="9.00" fill="#000000">2655</text>
</g>
<!-- Confess&#45;&gt;2655 -->
<g id="edge3" class="edge">
<title>Confess&#45;&gt;2655</title>
<path fill="none" stroke="#ff0000" stroke-width=".1695" d="M26.8701,-159.484C26.8701,-151.3826 26.8701,-142.4279 26.8701,-134.0624"/>
<polygon fill="#ff0000" stroke="#ff0000" stroke-width=".1695" points="30.3702,-133.8897 26.8701,-123.8897 23.3702,-133.8898 30.3702,-133.8897"/>
</g>
<!-- Silent -->
<g id="node3" class="node">
<title>Silent</title>
<ellipse fill="#add8e6" stroke="#000000" cx="26.8701" cy="-22.6274" rx="22.7556" ry="22.7556"/>
<text text-anchor="middle" x="26.8701" y="-20.4274" font-family="Times,serif" font-size="9.00" fill="#000000">Silent</text>
</g>
<!-- 2655&#45;&gt;Silent -->
<g id="edge6" class="edge">
<title>2655&#45;&gt;Silent</title>
<path fill="none" stroke="#00ff00" stroke-width=".3" d="M26.8701,-81.0722C26.8701,-73.2566 26.8701,-64.2237 26.8701,-55.6317"/>
<polygon fill="#00ff00" stroke="#00ff00" stroke-width=".3" points="30.3702,-55.4814 26.8701,-45.4815 23.3702,-55.4815 30.3702,-55.4814"/>
</g>
<!-- 432&#45;&gt;Confess -->
<g id="edge1" class="edge">
<title>432&#45;&gt;Confess</title>
<path fill="none" stroke="#ff0000" stroke-width=".2898" stroke-dasharray="1,5" d="M45.4241,-249.9148C43.0222,-241.7121 40.115,-231.7837 37.3216,-222.244"/>
<polygon fill="#ff0000" stroke="#ff0000" stroke-width=".2898" points="40.6469,-221.1455 34.4777,-212.5321 33.929,-223.1127 40.6469,-221.1455"/>
</g>
<!-- 2824&#45;&gt;432 -->
<g id="edge4" class="edge">
<title>2824&#45;&gt;432</title>
<path fill="none" stroke="#ff0000" stroke-width=".1351" d="M80.9824,-325.9564C76.0228,-316.4954 69.9374,-304.8866 64.5384,-294.5873"/>
<polygon fill="#ff0000" stroke="#ff0000" stroke-width=".1351" points="67.5679,-292.8279 59.825,-285.596 61.3681,-296.0779 67.5679,-292.8279"/>
</g>
</g>
</svg>
